<?xml version="1.0" encoding="UTF-8" standalone="no"?>
<!DOCTYPE svg PUBLIC "-//W3C//DTD SVG 1.1//EN" "http://www.w3.org/Graphics/SVG/1.1/DTD/svg11.dtd">
<svg xmlns="http://www.w3.org/2000/svg" version="1.1" viewBox="0.00 0.00 393.00 211.00">
<g stroke-width="2.00" fill="none" stroke-linecap="butt">
<path stroke="#849aaa" vector-effect="non-scaling-stroke" d="
  M 194.43 170.69
  C 225.44 184.35 263.61 176.41 282.11 146.58
  A 0.62 0.61 -59.3 0 0 281.90 145.73
  L 260.48 133.36
  A 0.43 0.43 0.0 0 0 259.90 133.51
  C 248.85 151.32 227.88 155.02 209.17 149.26
  A 0.76 0.74 20.8 0 0 208.27 149.65
  Q 203.86 158.93 196.50 168.49
  Q 195.54 169.74 194.82 170.21"
/>
<path stroke="#167075" vector-effect="non-scaling-stroke" d="
  M 194.82 170.21
  Q 170.95 158.23 161.39 133.67
  Q 155.85 119.43 156.52 104.75
  Q 158.08 70.43 185.33 50.82
  Q 190.62 47.01 195.98 44.72
  A 0.59 0.59 0.0 0 0 196.22 43.81
  C 176.55 18.71 145.67 4.41 113.99 5.21
  C 71.42 6.29 34.50 32.98 20.32 72.86
  C 6.61 111.42 18.02 155.17 48.83 182.18
  C 70.27 200.99 97.88 209.90 126.25 207.20
  Q 160.03 203.98 186.19 179.93
  Q 190.76 175.73 194.43 170.69"
/>
<path stroke="#91d5cb" vector-effect="non-scaling-stroke" d="
  M 194.82 170.21
  Q 194.56 170.18 194.43 170.69"
/>
<path stroke="#167075" vector-effect="non-scaling-stroke" d="
  M 194.87 75.94
  Q 184.93 85.02 182.81 100.76
  C 180.09 120.85 188.55 139.67 207.62 147.89
  A 1.36 1.35 23.1 0 0 209.40 147.18
  Q 226.23 107.54 210.07 67.27"
/>
<path stroke="#849aaa" vector-effect="non-scaling-stroke" d="
  M 210.07 67.27
  Q 221.91 63.29 234.07 65.64
  Q 250.95 68.92 259.92 83.28
  A 0.49 0.49 0.0 0 0 260.58 83.44
  L 281.85 71.16
  A 0.76 0.75 -31.6 0 0 282.11 70.10
  Q 266.30 45.80 237.43 40.86
  Q 217.15 37.38 198.38 44.60
  A 0.57 0.57 0.0 0 0 198.13 45.46
  Q 205.15 55.04 209.82 65.57
  A 1.11 1.11 0.0 0 1 209.18 67.07
  Q 201.19 69.94 194.87 75.94"
/>
<path stroke="#91d5cb" vector-effect="non-scaling-stroke" d="
  M 210.07 67.27
  Q 201.77 70.68 194.87 75.94"
/>
<path stroke="#849aaa" vector-effect="non-scaling-stroke" d="
  M 375.48 150.10
  A 0.46 0.46 0.0 0 0 375.02 149.64
  L 325.30 149.64
  A 0.46 0.46 0.0 0 1 324.84 149.18
  L 324.84 42.81
  A 0.46 0.46 0.0 0 0 324.38 42.35
  L 299.36 42.35
  A 0.46 0.46 0.0 0 0 298.90 42.81
  L 298.90 174.06
  A 0.46 0.46 0.0 0 0 299.36 174.52
  L 375.02 174.52
  A 0.46 0.46 0.0 0 0 375.48 174.06
  L 375.48 150.10"
/>
<path stroke="#167075" vector-effect="non-scaling-stroke" d="
  M 48.50 152.28
  Q 55.86 166.71 69.25 172.81
  C 79.34 177.41 92.23 178.18 103.14 176.36
  C 119.30 173.66 132.74 163.33 137.26 147.39
  Q 138.97 141.35 138.94 127.37
  Q 138.82 57.80 138.91 42.88
  A 0.55 0.55 0.0 0 0 138.36 42.32
  L 113.62 42.32
  A 0.73 0.73 0.0 0 0 112.89 43.05
  Q 112.76 101.47 112.91 126.19
  Q 112.98 137.92 111.36 141.63
  Q 108.04 149.21 98.59 151.05
  C 87.81 153.15 76.97 150.24 71.60 140.09
  A 1.12 1.12 0.0 0 0 70.05 139.64
  L 48.57 152.04
  A 0.18 0.18 0.0 0 0 48.50 152.28"
/>
</g>
<path fill="#083554" d="
  M 393.00 0.00
  L 393.00 211.00
  L 0.00 211.00
  L 0.00 0.00
  L 393.00 0.00
  Z
  M 194.43 170.69
  C 225.44 184.35 263.61 176.41 282.11 146.58
  A 0.62 0.61 -59.3 0 0 281.90 145.73
  L 260.48 133.36
  A 0.43 0.43 0.0 0 0 259.90 133.51
  C 248.85 151.32 227.88 155.02 209.17 149.26
  A 0.76 0.74 20.8 0 0 208.27 149.65
  Q 203.86 158.93 196.50 168.49
  Q 195.54 169.74 194.82 170.21
  Q 170.95 158.23 161.39 133.67
  Q 155.85 119.43 156.52 104.75
  Q 158.08 70.43 185.33 50.82
  Q 190.62 47.01 195.98 44.72
  A 0.59 0.59 0.0 0 0 196.22 43.81
  C 176.55 18.71 145.67 4.41 113.99 5.21
  C 71.42 6.29 34.50 32.98 20.32 72.86
  C 6.61 111.42 18.02 155.17 48.83 182.18
  C 70.27 200.99 97.88 209.90 126.25 207.20
  Q 160.03 203.98 186.19 179.93
  Q 190.76 175.73 194.43 170.69
  Z
  M 194.87 75.94
  Q 184.93 85.02 182.81 100.76
  C 180.09 120.85 188.55 139.67 207.62 147.89
  A 1.36 1.35 23.1 0 0 209.40 147.18
  Q 226.23 107.54 210.07 67.27
  Q 221.91 63.29 234.07 65.64
  Q 250.95 68.92 259.92 83.28
  A 0.49 0.49 0.0 0 0 260.58 83.44
  L 281.85 71.16
  A 0.76 0.75 -31.6 0 0 282.11 70.10
  Q 266.30 45.80 237.43 40.86
  Q 217.15 37.38 198.38 44.60
  A 0.57 0.57 0.0 0 0 198.13 45.46
  Q 205.15 55.04 209.82 65.57
  A 1.11 1.11 0.0 0 1 209.18 67.07
  Q 201.19 69.94 194.87 75.94
  Z
  M 375.48 150.10
  A 0.46 0.46 0.0 0 0 375.02 149.64
  L 325.30 149.64
  A 0.46 0.46 0.0 0 1 324.84 149.18
  L 324.84 42.81
  A 0.46 0.46 0.0 0 0 324.38 42.35
  L 299.36 42.35
  A 0.46 0.46 0.0 0 0 298.90 42.81
  L 298.90 174.06
  A 0.46 0.46 0.0 0 0 299.36 174.52
  L 375.02 174.52
  A 0.46 0.46 0.0 0 0 375.48 174.06
  L 375.48 150.10
  Z"
/>
<path fill="#23ab96" d="
  M 194.82 170.21
  Q 194.56 170.18 194.43 170.69
  Q 190.76 175.73 186.19 179.93
  Q 160.03 203.98 126.25 207.20
  C 97.88 209.90 70.27 200.99 48.83 182.18
  C 18.02 155.17 6.61 111.42 20.32 72.86
  C 34.50 32.98 71.42 6.29 113.99 5.21
  C 145.67 4.41 176.55 18.71 196.22 43.81
  A 0.59 0.59 0.0 0 1 195.98 44.72
  Q 190.62 47.01 185.33 50.82
  Q 158.08 70.43 156.52 104.75
  Q 155.85 119.43 161.39 133.67
  Q 170.95 158.23 194.82 170.21
  Z
  M 48.50 152.28
  Q 55.86 166.71 69.25 172.81
  C 79.34 177.41 92.23 178.18 103.14 176.36
  C 119.30 173.66 132.74 163.33 137.26 147.39
  Q 138.97 141.35 138.94 127.37
  Q 138.82 57.80 138.91 42.88
  A 0.55 0.55 0.0 0 0 138.36 42.32
  L 113.62 42.32
  A 0.73 0.73 0.0 0 0 112.89 43.05
  Q 112.76 101.47 112.91 126.19
  Q 112.98 137.92 111.36 141.63
  Q 108.04 149.21 98.59 151.05
  C 87.81 153.15 76.97 150.24 71.60 140.09
  A 1.12 1.12 0.0 0 0 70.05 139.64
  L 48.57 152.04
  A 0.18 0.18 0.0 0 0 48.50 152.28
  Z"
/>
<path fill="#ffffff" d="
  M 210.07 67.27
  Q 201.77 70.68 194.87 75.94
  Q 201.19 69.94 209.18 67.07
  A 1.11 1.11 0.0 0 0 209.82 65.57
  Q 205.15 55.04 198.13 45.46
  A 0.57 0.57 0.0 0 1 198.38 44.60
  Q 217.15 37.38 237.43 40.86
  Q 266.30 45.80 282.11 70.10
  A 0.76 0.75 -31.6 0 1 281.85 71.16
  L 260.58 83.44
  A 0.49 0.49 0.0 0 1 259.92 83.28
  Q 250.95 68.92 234.07 65.64
  Q 221.91 63.29 210.07 67.27
  Z"
/>
<path fill="#083554" d="
  M 48.50 152.28
  A 0.18 0.18 0.0 0 1 48.57 152.04
  L 70.05 139.64
  A 1.12 1.12 0.0 0 1 71.60 140.09
  C 76.97 150.24 87.81 153.15 98.59 151.05
  Q 108.04 149.21 111.36 141.63
  Q 112.98 137.92 112.91 126.19
  Q 112.76 101.47 112.89 43.05
  A 0.73 0.73 0.0 0 1 113.62 42.32
  L 138.36 42.32
  A 0.55 0.55 0.0 0 1 138.91 42.88
  Q 138.82 57.80 138.94 127.37
  Q 138.97 141.35 137.26 147.39
  C 132.74 163.33 119.30 173.66 103.14 176.36
  C 92.23 178.18 79.34 177.41 69.25 172.81
  Q 55.86 166.71 48.50 152.28
  Z"
/>
<path fill="#ffffff" d="
  M 375.48 150.10
  L 375.48 174.06
  A 0.46 0.46 0.0 0 1 375.02 174.52
  L 299.36 174.52
  A 0.46 0.46 0.0 0 1 298.90 174.06
  L 298.90 42.81
  A 0.46 0.46 0.0 0 1 299.36 42.35
  L 324.38 42.35
  A 0.46 0.46 0.0 0 1 324.84 42.81
  L 324.84 149.18
  A 0.46 0.46 0.0 0 0 325.30 149.64
  L 375.02 149.64
  A 0.46 0.46 0.0 0 1 375.48 150.10
  Z"
/>
<path fill="#23ab96" d="
  M 210.07 67.27
  Q 226.23 107.54 209.40 147.18
  A 1.36 1.35 23.1 0 1 207.62 147.89
  C 188.55 139.67 180.09 120.85 182.81 100.76
  Q 184.93 85.02 194.87 75.94
  Q 201.77 70.68 210.07 67.27
  Z"
/>
<path fill="#ffffff" d="
  M 194.43 170.69
  Q 194.56 170.18 194.82 170.21
  Q 195.54 169.74 196.50 168.49
  Q 203.86 158.93 208.27 149.65
  A 0.76 0.74 20.8 0 1 209.17 149.26
  C 227.88 155.02 248.85 151.32 259.90 133.51
  A 0.43 0.43 0.0 0 1 260.48 133.36
  L 281.90 145.73
  A 0.62 0.61 -59.3 0 1 282.11 146.58
  C 263.61 176.41 225.44 184.35 194.43 170.69
  Z"
/>
</svg>
