<?xml version="1.0" encoding="UTF-8" standalone="no"?>
<!DOCTYPE svg PUBLIC "-//W3C//DTD SVG 1.1//EN" "http://www.w3.org/Graphics/SVG/1.1/DTD/svg11.dtd">
<svg xmlns="http://www.w3.org/2000/svg" version="1.1" viewBox="0.00 0.00 389.00 203.00">
<g stroke-width="2.00" fill="none" stroke-linecap="butt">
<path stroke="#839aa9" vector-effect="non-scaling-stroke" d="
  M 193.00 42.79
  C 168.18 10.86 125.24 -2.04 87.00 11.70
  C 40.82 28.29 14.04 77.32 26.91 125.68
  C 35.26 157.05 59.21 182.24 89.76 191.79
  C 126.96 203.43 166.00 191.85 191.07 162.34
  A 1.14 1.13 -58.2 0 1 192.37 162.03
  C 221.48 174.29 256.34 166.46 273.04 138.83
  A 0.61 0.61 0.0 0 0 272.82 137.98
  L 252.91 126.48
  A 0.79 0.79 0.0 0 0 251.84 126.75
  C 242.15 142.85 222.13 146.86 205.18 141.24
  A 0.65 0.65 0.0 0 1 204.80 140.35
  C 215.65 116.78 215.86 89.42 206.21 65.42
  A 0.79 0.78 -19.5 0 1 206.72 64.37
  C 223.85 59.32 242.30 64.07 251.96 79.64
  A 0.66 0.65 -30.6 0 0 252.84 79.86
  L 272.89 68.28
  A 0.59 0.59 0.0 0 0 273.10 67.46
  C 256.02 40.42 223.72 32.55 194.55 43.22
  A 0.51 0.51 0.0 0 0 194.31 44.00
  Q 200.87 52.82 205.43 63.16
  A 0.73 0.73 0.0 0 1 205.03 64.14
  C 191.11 69.55 182.05 81.28 180.45 95.99
  C 178.32 115.55 185.30 132.09 203.59 140.39
  A 0.90 0.90 0.0 0 1 204.03 141.60
  Q 199.45 151.24 192.48 160.07
  A 1.58 1.58 0.0 0 1 190.52 160.50
  C 172.86 151.42 160.30 134.64 156.97 114.89
  C 151.91 84.84 165.02 56.79 192.81 43.56
  A 0.51 0.51 0.0 0 0 193.00 42.79"
/>
<path stroke="#839aa9" vector-effect="non-scaling-stroke" d="
  M 288.32 164.80
  A 0.36 0.36 0.0 0 0 288.68 165.16
  L 359.57 165.16
  A 0.36 0.36 0.0 0 0 359.93 164.80
  L 359.93 142.03
  A 0.36 0.36 0.0 0 0 359.57 141.67
  L 313.07 141.67
  A 0.36 0.36 0.0 0 1 312.71 141.31
  L 312.71 41.35
  A 0.36 0.36 0.0 0 0 312.35 40.99
  L 288.68 40.99
  A 0.36 0.36 0.0 0 0 288.32 41.35
  L 288.32 164.80"
/>
<path stroke="#166f75" vector-effect="non-scaling-stroke" d="
  M 55.54 144.44
  Q 62.12 157.21 73.86 162.95
  C 83.63 167.72 96.39 168.55 107.20 166.51
  C 127.49 162.69 139.55 147.21 139.55 126.75
  Q 139.57 48.30 139.60 41.94
  A 0.87 0.87 0.0 0 0 138.73 41.07
  L 116.04 41.07
  A 0.81 0.81 0.0 0 0 115.23 41.89
  Q 115.27 46.09 115.23 127.92
  C 115.22 141.69 100.58 145.77 89.52 142.93
  Q 80.84 140.71 76.79 132.84
  A 0.95 0.95 0.0 0 0 75.47 132.45
  L 55.71 143.86
  A 0.44 0.44 0.0 0 0 55.54 144.44"
/>
</g>
<path fill="#ffffff" d="
  M 389.00 0.00
  L 389.00 203.00
  L 0.00 203.00
  L 0.00 0.00
  L 389.00 0.00
  Z
  M 193.00 42.79
  C 168.18 10.86 125.24 -2.04 87.00 11.70
  C 40.82 28.29 14.04 77.32 26.91 125.68
  C 35.26 157.05 59.21 182.24 89.76 191.79
  C 126.96 203.43 166.00 191.85 191.07 162.34
  A 1.14 1.13 -58.2 0 1 192.37 162.03
  C 221.48 174.29 256.34 166.46 273.04 138.83
  A 0.61 0.61 0.0 0 0 272.82 137.98
  L 252.91 126.48
  A 0.79 0.79 0.0 0 0 251.84 126.75
  C 242.15 142.85 222.13 146.86 205.18 141.24
  A 0.65 0.65 0.0 0 1 204.80 140.35
  C 215.65 116.78 215.86 89.42 206.21 65.42
  A 0.79 0.78 -19.5 0 1 206.72 64.37
  C 223.85 59.32 242.30 64.07 251.96 79.64
  A 0.66 0.65 -30.6 0 0 252.84 79.86
  L 272.89 68.28
  A 0.59 0.59 0.0 0 0 273.10 67.46
  C 256.02 40.42 223.72 32.55 194.55 43.22
  A 0.51 0.51 0.0 0 0 194.31 44.00
  Q 200.87 52.82 205.43 63.16
  A 0.73 0.73 0.0 0 1 205.03 64.14
  C 191.11 69.55 182.05 81.28 180.45 95.99
  C 178.32 115.55 185.30 132.09 203.59 140.39
  A 0.90 0.90 0.0 0 1 204.03 141.60
  Q 199.45 151.24 192.48 160.07
  A 1.58 1.58 0.0 0 1 190.52 160.50
  C 172.86 151.42 160.30 134.64 156.97 114.89
  C 151.91 84.84 165.02 56.79 192.81 43.56
  A 0.51 0.51 0.0 0 0 193.00 42.79
  Z
  M 288.32 164.80
  A 0.36 0.36 0.0 0 0 288.68 165.16
  L 359.57 165.16
  A 0.36 0.36 0.0 0 0 359.93 164.80
  L 359.93 142.03
  A 0.36 0.36 0.0 0 0 359.57 141.67
  L 313.07 141.67
  A 0.36 0.36 0.0 0 1 312.71 141.31
  L 312.71 41.35
  A 0.36 0.36 0.0 0 0 312.35 40.99
  L 288.68 40.99
  A 0.36 0.36 0.0 0 0 288.32 41.35
  L 288.32 164.80
  Z"
/>
<path fill="#073453" d="
  M 193.00 42.79
  A 0.51 0.51 0.0 0 1 192.81 43.56
  C 165.02 56.79 151.91 84.84 156.97 114.89
  C 160.30 134.64 172.86 151.42 190.52 160.50
  A 1.58 1.58 0.0 0 0 192.48 160.07
  Q 199.45 151.24 204.03 141.60
  A 0.90 0.90 0.0 0 0 203.59 140.39
  C 185.30 132.09 178.32 115.55 180.45 95.99
  C 182.05 81.28 191.11 69.55 205.03 64.14
  A 0.73 0.73 0.0 0 0 205.43 63.16
  Q 200.87 52.82 194.31 44.00
  A 0.51 0.51 0.0 0 1 194.55 43.22
  C 223.72 32.55 256.02 40.42 273.10 67.46
  A 0.59 0.59 0.0 0 1 272.89 68.28
  L 252.84 79.86
  A 0.66 0.65 -30.6 0 1 251.96 79.64
  C 242.30 64.07 223.85 59.32 206.72 64.37
  A 0.79 0.78 -19.5 0 0 206.21 65.42
  C 215.86 89.42 215.65 116.78 204.80 140.35
  A 0.65 0.65 0.0 0 0 205.18 141.24
  C 222.13 146.86 242.15 142.85 251.84 126.75
  A 0.79 0.79 0.0 0 1 252.91 126.48
  L 272.82 137.98
  A 0.61 0.61 0.0 0 1 273.04 138.83
  C 256.34 166.46 221.48 174.29 192.37 162.03
  A 1.14 1.13 -58.2 0 0 191.07 162.34
  C 166.00 191.85 126.96 203.43 89.76 191.79
  C 59.21 182.24 35.26 157.05 26.91 125.68
  C 14.04 77.32 40.82 28.29 87.00 11.70
  C 125.24 -2.04 168.18 10.86 193.00 42.79
  Z
  M 55.54 144.44
  Q 62.12 157.21 73.86 162.95
  C 83.63 167.72 96.39 168.55 107.20 166.51
  C 127.49 162.69 139.55 147.21 139.55 126.75
  Q 139.57 48.30 139.60 41.94
  A 0.87 0.87 0.0 0 0 138.73 41.07
  L 116.04 41.07
  A 0.81 0.81 0.0 0 0 115.23 41.89
  Q 115.27 46.09 115.23 127.92
  C 115.22 141.69 100.58 145.77 89.52 142.93
  Q 80.84 140.71 76.79 132.84
  A 0.95 0.95 0.0 0 0 75.47 132.45
  L 55.71 143.86
  A 0.44 0.44 0.0 0 0 55.54 144.44
  Z"
/>
<path fill="#073453" d="
  M 288.32 164.80
  L 288.32 41.35
  A 0.36 0.36 0.0 0 1 288.68 40.99
  L 312.35 40.99
  A 0.36 0.36 0.0 0 1 312.71 41.35
  L 312.71 141.31
  A 0.36 0.36 0.0 0 0 313.07 141.67
  L 359.57 141.67
  A 0.36 0.36 0.0 0 1 359.93 142.03
  L 359.93 164.80
  A 0.36 0.36 0.0 0 1 359.57 165.16
  L 288.68 165.16
  A 0.36 0.36 0.0 0 1 288.32 164.80
  Z"
/>
<path fill="#24aa97" d="
  M 55.54 144.44
  A 0.44 0.44 0.0 0 1 55.71 143.86
  L 75.47 132.45
  A 0.95 0.95 0.0 0 1 76.79 132.84
  Q 80.84 140.71 89.52 142.93
  C 100.58 145.77 115.22 141.69 115.23 127.92
  Q 115.27 46.09 115.23 41.89
  A 0.81 0.81 0.0 0 1 116.04 41.07
  L 138.73 41.07
  A 0.87 0.87 0.0 0 1 139.60 41.94
  Q 139.57 48.30 139.55 126.75
  C 139.55 147.21 127.49 162.69 107.20 166.51
  C 96.39 168.55 83.63 167.72 73.86 162.95
  Q 62.12 157.21 55.54 144.44
  Z"
/>
</svg>
